# 3ds Max Wavefront OBJ Exporter v0.99 - (c)2007 guruware
# File Created: 17.11.2020 23:06:02

mtllib HexTunnel.mtl

#
# object HexTunnel
#

v  0.4488 0.1970 0.7774
v  0.8976 0.1970 -0.0000
v  -0.0000 0.1970 -0.0000
v  0.4488 0.1970 -0.7774
v  -0.4488 0.1970 -0.7774
v  -0.8976 0.1970 -0.0000
v  -0.4488 0.1970 0.7774
v  0.4488 0.0985 0.7774
v  0.8976 0.0985 -0.0000
v  0.4488 0.0985 -0.7774
v  -0.4488 0.0985 -0.7774
v  -0.8976 0.0985 -0.0000
v  -0.4488 0.0985 0.7774
v  0.4488 -0.0000 0.7774
v  -0.0000 -0.0000 -0.0000
v  0.8976 -0.0000 -0.0000
v  0.4488 -0.0000 -0.7774
v  -0.4488 -0.0000 -0.7774
v  -0.8976 -0.0000 -0.0000
v  -0.4488 -0.0000 0.7774
v  0.6856 0.1970 -0.0000
v  0.5938 0.1970 -0.3428
v  0.4198 0.3066 -0.2424
v  0.4847 0.3066 -0.0000
v  0.3428 0.1970 -0.5938
v  0.2424 0.3066 -0.4198
v  -0.0000 0.1970 -0.6857
v  -0.0000 0.3066 -0.4847
v  -0.3428 0.1970 -0.5938
v  -0.2424 0.3066 -0.4198
v  -0.5938 0.1970 -0.3428
v  -0.4198 0.3066 -0.2424
v  -0.6856 0.1970 -0.0000
v  -0.4847 0.3066 -0.0000
v  -0.5938 0.1970 0.3428
v  -0.4198 0.3066 0.2424
v  -0.3428 0.1970 0.5938
v  -0.2424 0.3066 0.4198
v  -0.0000 0.1970 0.6856
v  -0.0000 0.3066 0.4847
v  0.3428 0.1970 0.5938
v  0.2424 0.3066 0.4198
v  0.5938 0.1970 0.3428
v  0.4198 0.3066 0.2424
v  0.2868 0.2518 -0.0000
v  0.2483 0.2518 -0.1434
v  0.1434 0.2518 -0.2484
v  -0.0000 0.2518 -0.2868
v  -0.1434 0.2518 -0.2484
v  -0.2483 0.2518 -0.1434
v  -0.2868 0.2518 -0.0000
v  -0.2483 0.2518 0.1434
v  -0.1434 0.2518 0.2483
v  -0.0000 0.2518 0.2868
v  0.1434 0.2518 0.2483
v  0.2483 0.2518 0.1434
v  0.3088 0.4419 -0.1783
v  0.3566 0.4419 -0.0000
v  0.1783 0.4419 -0.3088
v  -0.0000 0.4419 -0.3566
v  -0.1783 0.4419 -0.3088
v  -0.3088 0.4419 -0.1783
v  -0.3566 0.4419 -0.0000
v  -0.3088 0.4419 0.1783
v  -0.1783 0.4419 0.3088
v  -0.0000 0.4419 0.3566
v  0.1783 0.4419 0.3088
v  0.3088 0.4419 0.1783
v  0.2732 0.4726 -0.1577
v  0.3154 0.4726 -0.0000
v  0.1577 0.4726 -0.2732
v  -0.0000 0.4726 -0.3154
v  -0.1577 0.4726 -0.2732
v  -0.2732 0.4726 -0.1577
v  -0.3154 0.4726 -0.0000
v  -0.2732 0.4726 0.1577
v  -0.1577 0.4726 0.2732
v  -0.0000 0.4726 0.3154
v  0.1577 0.4726 0.2732
v  0.2732 0.4726 0.1577
v  0.2483 0.4528 -0.1434
v  0.2868 0.4528 -0.0000
v  0.1434 0.4528 -0.2484
v  -0.0000 0.4528 -0.2868
v  -0.1434 0.4528 -0.2484
v  -0.2483 0.4528 -0.1434
v  -0.2868 0.4528 -0.0000
v  -0.2483 0.4528 0.1434
v  -0.1434 0.4528 0.2483
v  -0.0000 0.4528 0.2868
v  0.1434 0.4528 0.2483
v  0.2483 0.4528 0.1434
# 92 vertices

vn 0.0000 1.0000 -0.0000
vn 1.0000 0.0000 -0.0000
vn 0.5000 0.0000 0.8660
vn 0.5000 -0.0000 -0.8660
vn 0.5000 0.0000 -0.8660
vn -0.5000 -0.0000 -0.8660
vn -0.5000 0.0000 -0.8660
vn -1.0000 0.0000 0.0000
vn -0.5000 0.0000 0.8660
vn 0.0000 -1.0000 -0.0000
vn 1.0000 0.0000 0.0000
vn 0.4789 0.8779 0.0000
vn 0.4147 0.8779 -0.2394
vn 0.5137 0.8051 -0.2966
vn 0.5932 0.8051 0.0000
vn 0.2394 0.8779 -0.4147
vn 0.2966 0.8051 -0.5137
vn -0.0000 0.8779 -0.4789
vn 0.0000 0.8051 -0.5932
vn -0.2394 0.8779 -0.4147
vn -0.2966 0.8051 -0.5137
vn -0.4147 0.8779 -0.2394
vn -0.5137 0.8051 -0.2966
vn -0.4789 0.8779 -0.0000
vn -0.5932 0.8051 -0.0000
vn -0.4147 0.8779 0.2394
vn -0.5137 0.8051 0.2966
vn -0.2394 0.8779 0.4147
vn -0.2966 0.8051 0.5137
vn -0.0000 0.8779 0.4789
vn -0.0000 0.8051 0.5932
vn 0.2394 0.8779 0.4147
vn 0.2966 0.8051 0.5137
vn 0.4147 0.8779 0.2394
vn 0.5137 0.8051 0.2966
vn -0.7572 0.6532 -0.0000
vn -0.6557 0.6532 0.3786
vn -0.3786 0.6532 0.6557
vn 0.0000 0.6532 0.7572
vn 0.3786 0.6532 0.6557
vn 0.6557 0.6532 0.3786
vn 0.7572 0.6532 0.0000
vn 0.6557 0.6532 -0.3786
vn 0.3786 0.6532 -0.6557
vn 0.0000 0.6532 -0.7572
vn -0.3786 0.6532 -0.6557
vn -0.6557 0.6532 -0.3786
vn 0.5824 0.7401 -0.3362
vn 0.6725 0.7401 0.0000
vn 0.3362 0.7401 -0.5824
vn -0.0000 0.7401 -0.6725
vn -0.3362 0.7401 -0.5824
vn -0.5824 0.7401 -0.3362
vn -0.6725 0.7401 -0.0000
vn -0.5824 0.7401 0.3362
vn -0.3362 0.7401 0.5824
vn -0.0000 0.7401 0.6725
vn 0.3362 0.7401 0.5824
vn 0.5824 0.7401 0.3362
vn 0.0994 0.9934 -0.0574
vn 0.1148 0.9934 0.0000
vn 0.0574 0.9934 -0.0994
vn 0.0000 0.9934 -0.1148
vn -0.0574 0.9934 -0.0994
vn -0.0994 0.9934 -0.0574
vn -0.1148 0.9934 -0.0000
vn -0.0994 0.9934 0.0574
vn -0.0574 0.9934 0.0994
vn -0.0000 0.9934 0.1148
vn 0.0574 0.9934 0.0994
vn 0.0994 0.9934 0.0574
vn -0.7502 0.4996 0.4331
vn -0.8663 0.4996 -0.0000
vn -0.4331 0.4996 0.7502
vn -0.0000 0.4996 0.8663
vn 0.4331 0.4996 0.7502
vn 0.7502 0.4996 0.4331
vn 0.8663 0.4996 0.0000
vn 0.7502 0.4996 -0.4331
vn 0.4331 0.4996 -0.7502
vn 0.0000 0.4996 -0.8663
vn -0.4331 0.4996 -0.7502
vn -0.7502 0.4996 -0.4331
# 83 vertex normals

vt 0.2395 0.5525 0.0000
vt 0.0005 0.4145 0.0000
vt 0.2395 0.2765 0.0000
vt 0.0005 0.1385 0.0000
vt 0.2395 0.0005 0.0000
vt 0.4786 0.1385 0.0000
vt 0.4786 0.4145 0.0000
vt 0.0052 0.8435 0.0000
vt 0.2771 0.8435 0.0000
vt 0.2771 0.8779 0.0000
vt 0.0052 0.8779 0.0000
vt 0.2812 0.8330 0.0000
vt 0.0052 0.8330 0.0000
vt 0.0052 0.8027 0.0000
vt 0.2812 0.8027 0.0000
vt 0.2771 0.9929 0.0000
vt 0.0052 0.9929 0.0000
vt 0.0052 0.9584 0.0000
vt 0.2771 0.9584 0.0000
vt 0.5489 0.9929 0.0000
vt 0.5489 0.9584 0.0000
vt 0.2812 0.7620 0.0000
vt 0.0052 0.7620 0.0000
vt 0.0052 0.7317 0.0000
vt 0.2812 0.7317 0.0000
vt 0.5489 0.8435 0.0000
vt 0.5489 0.8779 0.0000
vt 0.7605 0.5525 0.0000
vt 0.7605 0.2765 0.0000
vt 0.9995 0.4145 0.0000
vt 0.9995 0.1385 0.0000
vt 0.7605 0.0005 0.0000
vt 0.5214 0.1385 0.0000
vt 0.5214 0.4145 0.0000
vt 0.0052 0.9124 0.0000
vt 0.2771 0.9124 0.0000
vt 0.2812 0.7724 0.0000
vt 0.0052 0.7724 0.0000
vt 0.2771 0.9240 0.0000
vt 0.0052 0.9240 0.0000
vt 0.5489 0.9240 0.0000
vt 0.2812 0.7014 0.0000
vt 0.0052 0.7014 0.0000
vt 0.5489 0.9124 0.0000
vt 0.9972 0.8312 0.0000
vt 0.9399 0.9345 0.0000
vt 0.8919 0.8880 0.0000
vt 0.9324 0.8150 0.0000
vt 0.8387 0.9952 0.0000
vt 0.8203 0.9310 0.0000
vt 0.7206 0.9972 0.0000
vt 0.7368 0.9324 0.0000
vt 0.6173 0.9399 0.0000
vt 0.6638 0.8919 0.0000
vt 0.5566 0.8387 0.0000
vt 0.6209 0.8203 0.0000
vt 0.5546 0.7206 0.0000
vt 0.6195 0.7368 0.0000
vt 0.6119 0.6173 0.0000
vt 0.6600 0.6638 0.0000
vt 0.7132 0.5566 0.0000
vt 0.7316 0.6209 0.0000
vt 0.8312 0.5546 0.0000
vt 0.8150 0.6195 0.0000
vt 0.9345 0.6119 0.0000
vt 0.8880 0.6600 0.0000
vt 0.9952 0.7132 0.0000
vt 0.9310 0.7316 0.0000
vt 0.1763 0.5905 0.0000
vt 0.1542 0.6304 0.0000
vt 0.1150 0.6539 0.0000
vt 0.0694 0.6546 0.0000
vt 0.0295 0.6325 0.0000
vt 0.0060 0.5934 0.0000
vt 0.0052 0.5477 0.0000
vt 0.0274 0.5078 0.0000
vt 0.0665 0.4843 0.0000
vt 0.1122 0.4836 0.0000
vt 0.1521 0.5057 0.0000
vt 0.1756 0.5449 0.0000
vt 0.8612 0.8584 0.0000
vt 0.8910 0.8047 0.0000
vt 0.8085 0.8900 0.0000
vt 0.7471 0.8910 0.0000
vt 0.6934 0.8612 0.0000
vt 0.6618 0.8085 0.0000
vt 0.6608 0.7471 0.0000
vt 0.6906 0.6934 0.0000
vt 0.7433 0.6618 0.0000
vt 0.8047 0.6608 0.0000
vt 0.8584 0.6906 0.0000
vt 0.8900 0.7433 0.0000
vt 0.8514 0.8489 0.0000
vt 0.8777 0.8014 0.0000
vt 0.8048 0.8768 0.0000
vt 0.7505 0.8777 0.0000
vt 0.7030 0.8514 0.0000
vt 0.6750 0.8048 0.0000
vt 0.6741 0.7505 0.0000
vt 0.7005 0.7030 0.0000
vt 0.7470 0.6750 0.0000
vt 0.8014 0.6741 0.0000
vt 0.8489 0.7005 0.0000
vt 0.8768 0.7470 0.0000
vt 0.8445 0.8422 0.0000
vt 0.8685 0.7991 0.0000
vt 0.8022 0.8676 0.0000
vt 0.7528 0.8685 0.0000
vt 0.7096 0.8445 0.0000
vt 0.6842 0.8022 0.0000
vt 0.6833 0.7528 0.0000
vt 0.7073 0.7096 0.0000
vt 0.7497 0.6842 0.0000
vt 0.7991 0.6833 0.0000
vt 0.8422 0.7073 0.0000
vt 0.8676 0.7497 0.0000
vt 0.6299 0.0632 0.0000
vt 0.5851 0.0632 0.0000
vt 0.5851 0.0005 0.0000
vt 0.6299 0.0005 0.0000
vt 0.5404 0.0632 0.0000
vt 0.5404 0.0005 0.0000
vt 0.5388 0.0669 0.0000
vt 0.5041 0.0669 0.0000
vt 0.5041 0.0005 0.0000
vt 0.5388 0.0005 0.0000
vt 0.4567 0.0669 0.0000
vt 0.4567 0.0005 0.0000
vt 0.4093 0.0669 0.0000
vt 0.4093 0.0005 0.0000
vt 0.3746 0.0669 0.0000
vt 0.3746 0.0005 0.0000
vt 0.5399 0.8304 0.0000
vt 0.4951 0.8304 0.0000
vt 0.4951 0.7677 0.0000
vt 0.5399 0.7677 0.0000
vt 0.4504 0.8304 0.0000
vt 0.4504 0.7677 0.0000
vt 0.4488 0.8294 0.0000
vt 0.4141 0.8294 0.0000
vt 0.4141 0.7630 0.0000
vt 0.4488 0.7630 0.0000
vt 0.3667 0.8294 0.0000
vt 0.3667 0.7630 0.0000
vt 0.3193 0.8294 0.0000
vt 0.3193 0.7630 0.0000
vt 0.2847 0.8294 0.0000
vt 0.2847 0.7630 0.0000
# 148 texture coords

o HexTunnel
g HexTunnel
usemtl wire_228153184
s off
f 1/1/1 2/2/1 3/3/1 
f 2/2/1 4/4/1 3/3/1 
f 4/4/1 5/5/1 3/3/1 
f 5/5/1 6/6/1 3/3/1 
f 6/6/1 7/7/1 3/3/1 
f 7/7/1 1/1/1 3/3/1 
s 8
f 2/8/2 1/9/3 8/10/3 
f 8/10/3 9/11/2 2/8/2 
f 4/12/4 2/13/2 9/14/2 
f 9/14/2 10/15/5 4/12/4 
f 5/16/6 4/17/4 10/18/5 
f 10/18/5 11/19/7 5/16/6 
f 6/20/8 5/16/6 11/19/7 
f 11/19/7 12/21/8 6/20/8 
f 7/22/9 6/23/8 12/24/8 
f 12/24/8 13/25/9 7/22/9 
f 1/9/3 7/26/9 13/27/9 
f 13/27/9 8/10/3 1/9/3 
s off
f 14/28/10 15/29/10 16/30/10 
f 16/30/10 15/29/10 17/31/10 
f 17/31/10 15/29/10 18/32/10 
f 18/32/10 15/29/10 19/33/10 
f 19/33/10 15/29/10 20/34/10 
f 20/34/10 15/29/10 14/28/10 
s 8
f 16/35/11 9/11/2 8/10/3 
f 8/10/3 14/36/3 16/35/11 
f 17/37/5 10/15/5 9/14/2 
f 9/14/2 16/38/11 17/37/5 
f 18/39/7 11/19/7 10/18/5 
f 10/18/5 17/40/5 18/39/7 
f 19/41/8 12/21/8 11/19/7 
f 11/19/7 18/39/7 19/41/8 
f 20/42/9 13/25/9 12/24/8 
f 12/24/8 19/43/8 20/42/9 
f 14/36/3 8/10/3 13/27/9 
f 13/27/9 20/44/9 14/36/3 
s 1
f 21/45/12 22/46/13 23/47/14 
f 23/47/14 24/48/15 21/45/12 
f 22/46/13 25/49/16 26/50/17 
f 26/50/17 23/47/14 22/46/13 
f 25/49/16 27/51/18 28/52/19 
f 28/52/19 26/50/17 25/49/16 
f 27/51/18 29/53/20 30/54/21 
f 30/54/21 28/52/19 27/51/18 
f 29/53/20 31/55/22 32/56/23 
f 32/56/23 30/54/21 29/53/20 
f 31/55/22 33/57/24 34/58/25 
f 34/58/25 32/56/23 31/55/22 
f 33/57/24 35/59/26 36/60/27 
f 36/60/27 34/58/25 33/57/24 
f 35/59/26 37/61/28 38/62/29 
f 38/62/29 36/60/27 35/59/26 
f 37/61/28 39/63/30 40/64/31 
f 40/64/31 38/62/29 37/61/28 
f 39/63/30 41/65/32 42/66/33 
f 42/66/33 40/64/31 39/63/30 
f 41/65/32 43/67/34 44/68/35 
f 44/68/35 42/66/33 41/65/32 
f 43/67/34 21/45/12 24/48/15 
f 24/48/15 44/68/35 43/67/34 
f 45/69/36 46/70/37 47/71/38 
f 47/71/38 48/72/39 49/73/40 
f 49/73/40 50/74/41 51/75/42 
f 47/71/38 49/73/40 51/75/42 
f 51/75/42 52/76/43 53/77/44 
f 53/77/44 54/78/45 55/79/46 
f 51/75/42 53/77/44 55/79/46 
f 47/71/38 51/75/42 55/79/46 
f 45/69/36 47/71/38 55/79/46 
f 56/80/47 45/69/36 55/79/46 
f 24/48/15 23/47/14 57/81/48 
f 57/81/48 58/82/49 24/48/15 
f 23/47/14 26/50/17 59/83/50 
f 59/83/50 57/81/48 23/47/14 
f 26/50/17 28/52/19 60/84/51 
f 60/84/51 59/83/50 26/50/17 
f 28/52/19 30/54/21 61/85/52 
f 61/85/52 60/84/51 28/52/19 
f 30/54/21 32/56/23 62/86/53 
f 62/86/53 61/85/52 30/54/21 
f 32/56/23 34/58/25 63/87/54 
f 63/87/54 62/86/53 32/56/23 
f 34/58/25 36/60/27 64/88/55 
f 64/88/55 63/87/54 34/58/25 
f 36/60/27 38/62/29 65/89/56 
f 65/89/56 64/88/55 36/60/27 
f 38/62/29 40/64/31 66/90/57 
f 66/90/57 65/89/56 38/62/29 
f 40/64/31 42/66/33 67/91/58 
f 67/91/58 66/90/57 40/64/31 
f 42/66/33 44/68/35 68/92/59 
f 68/92/59 67/91/58 42/66/33 
f 44/68/35 24/48/15 58/82/49 
f 58/82/49 68/92/59 44/68/35 
f 58/82/49 57/81/48 69/93/60 
f 69/93/60 70/94/61 58/82/49 
f 57/81/48 59/83/50 71/95/62 
f 71/95/62 69/93/60 57/81/48 
f 59/83/50 60/84/51 72/96/63 
f 72/96/63 71/95/62 59/83/50 
f 60/84/51 61/85/52 73/97/64 
f 73/97/64 72/96/63 60/84/51 
f 61/85/52 62/86/53 74/98/65 
f 74/98/65 73/97/64 61/85/52 
f 62/86/53 63/87/54 75/99/66 
f 75/99/66 74/98/65 62/86/53 
f 63/87/54 64/88/55 76/100/67 
f 76/100/67 75/99/66 63/87/54 
f 64/88/55 65/89/56 77/101/68 
f 77/101/68 76/100/67 64/88/55 
f 65/89/56 66/90/57 78/102/69 
f 78/102/69 77/101/68 65/89/56 
f 66/90/57 67/91/58 79/103/70 
f 79/103/70 78/102/69 66/90/57 
f 67/91/58 68/92/59 80/104/71 
f 80/104/71 79/103/70 67/91/58 
f 68/92/59 58/82/49 70/94/61 
f 70/94/61 80/104/71 68/92/59 
f 70/94/61 69/93/60 81/105/72 
f 81/105/72 82/106/73 70/94/61 
f 69/93/60 71/95/62 83/107/74 
f 83/107/74 81/105/72 69/93/60 
f 71/95/62 72/96/63 84/108/75 
f 84/108/75 83/107/74 71/95/62 
f 72/96/63 73/97/64 85/109/76 
f 85/109/76 84/108/75 72/96/63 
f 73/97/64 74/98/65 86/110/77 
f 86/110/77 85/109/76 73/97/64 
f 74/98/65 75/99/66 87/111/78 
f 87/111/78 86/110/77 74/98/65 
f 75/99/66 76/100/67 88/112/79 
f 88/112/79 87/111/78 75/99/66 
f 76/100/67 77/101/68 89/113/80 
f 89/113/80 88/112/79 76/100/67 
f 77/101/68 78/102/69 90/114/81 
f 90/114/81 89/113/80 77/101/68 
f 78/102/69 79/103/70 91/115/82 
f 91/115/82 90/114/81 78/102/69 
f 79/103/70 80/104/71 92/116/83 
f 92/116/83 91/115/82 79/103/70 
f 80/104/71 70/94/61 82/106/73 
f 82/106/73 92/116/83 80/104/71 
f 82/117/73 81/118/72 46/119/37 
f 46/119/37 45/120/36 82/117/73 
f 81/118/72 83/121/74 47/122/38 
f 47/122/38 46/119/37 81/118/72 
f 83/123/74 84/124/75 48/125/39 
f 48/125/39 47/126/38 83/123/74 
f 84/124/75 85/127/76 49/128/40 
f 49/128/40 48/125/39 84/124/75 
f 85/127/76 86/129/77 50/130/41 
f 50/130/41 49/128/40 85/127/76 
f 86/129/77 87/131/78 51/132/42 
f 51/132/42 50/130/41 86/129/77 
f 87/133/78 88/134/79 52/135/43 
f 52/135/43 51/136/42 87/133/78 
f 88/134/79 89/137/80 53/138/44 
f 53/138/44 52/135/43 88/134/79 
f 89/139/80 90/140/81 54/141/45 
f 54/141/45 53/142/44 89/139/80 
f 90/140/81 91/143/82 55/144/46 
f 55/144/46 54/141/45 90/140/81 
f 91/143/82 92/145/83 56/146/47 
f 56/146/47 55/144/46 91/143/82 
f 92/145/83 82/147/73 45/148/36 
f 45/148/36 56/146/47 92/145/83 
# 166 faces

