# 3ds Max Wavefront OBJ Exporter v0.99 - (c)2007 guruware
# File Created: 17.11.2020 23:06:50

mtllib PieceTrash.mtl

#
# object PieceTrash
#

v  0.4401 0.1801 -0.2541
v  0.4401 1.2107 -0.2541
v  0.5081 1.2107 0.0000
v  0.5081 0.1801 -0.0000
v  0.2541 0.1801 -0.4401
v  0.2541 1.2107 -0.4401
v  0.0000 0.1801 -0.5081
v  -0.0000 1.2107 -0.5081
v  -0.2541 0.1801 -0.4401
v  -0.2541 1.2107 -0.4401
v  -0.4401 0.1801 -0.2541
v  -0.4401 1.2107 -0.2541
v  -0.5081 0.1801 -0.0000
v  -0.5081 1.2107 0.0000
v  -0.4401 0.1801 0.2541
v  -0.4401 1.2107 0.2541
v  -0.2541 0.1801 0.4401
v  -0.2541 1.2107 0.4401
v  0.0000 0.1801 0.5081
v  -0.0000 1.2107 0.5081
v  0.2541 0.1801 0.4401
v  0.2541 1.2107 0.4401
v  0.4401 0.1801 0.2541
v  0.4401 1.2107 0.2541
v  0.4224 1.5420 0.0000
v  0.3658 1.5420 -0.2112
v  0.2112 1.5420 -0.3658
v  -0.0000 1.5420 -0.4224
v  -0.2112 1.5420 -0.3658
v  -0.3658 1.5420 -0.2112
v  -0.4224 1.5420 0.0000
v  -0.3658 1.5420 0.2112
v  -0.2112 1.5420 0.3658
v  -0.0000 1.5420 0.4224
v  0.2112 1.5420 0.3658
v  0.3658 1.5420 0.2112
v  0.1738 0.0000 0.3011
v  0.3011 0.0000 0.1738
v  0.4053 0.0561 0.2340
v  0.2340 0.0561 0.4053
v  0.0000 0.0000 0.3476
v  0.0000 0.0561 0.4680
v  -0.1738 0.0000 0.3011
v  -0.2340 0.0561 0.4053
v  -0.3011 0.0000 0.1738
v  -0.4053 0.0561 0.2340
v  -0.3476 0.0000 -0.0000
v  -0.4680 0.0561 -0.0000
v  -0.3011 0.0000 -0.1738
v  -0.4053 0.0561 -0.2340
v  -0.1738 0.0000 -0.3011
v  -0.2340 0.0561 -0.4053
v  0.0000 0.0000 -0.3476
v  0.0000 0.0561 -0.4680
v  0.1738 0.0000 -0.3011
v  0.2340 0.0561 -0.4053
v  0.3011 0.0000 -0.1738
v  0.4053 0.0561 -0.2340
v  0.3476 0.0000 -0.0000
v  0.4680 0.0561 -0.0000
v  0.4401 1.4182 -0.2541
v  0.5081 1.4182 0.0000
v  0.5081 1.2989 0.0000
v  0.4401 1.2989 -0.2541
v  0.4401 1.2548 -0.2541
v  0.5081 1.2548 0.0000
v  0.2541 1.4182 -0.4401
v  0.2541 1.2989 -0.4401
v  0.2541 1.2548 -0.4401
v  -0.0000 1.4182 -0.5081
v  -0.0000 1.2989 -0.5081
v  -0.0000 1.2548 -0.5081
v  -0.2541 1.4182 -0.4401
v  -0.2541 1.2989 -0.4401
v  -0.2541 1.2548 -0.4401
v  -0.4401 1.4182 -0.2541
v  -0.4401 1.2989 -0.2541
v  -0.4401 1.2548 -0.2541
v  -0.5081 1.4182 0.0000
v  -0.5081 1.2990 0.0000
v  -0.5081 1.2548 0.0000
v  -0.4401 1.4182 0.2541
v  -0.4401 1.2990 0.2541
v  -0.4401 1.2548 0.2541
v  -0.2541 1.4182 0.4401
v  -0.2541 1.2990 0.4401
v  -0.2541 1.2548 0.4401
v  -0.0000 1.4182 0.5081
v  -0.0000 1.2990 0.5081
v  -0.0000 1.2548 0.5081
v  0.2541 1.4182 0.4401
v  0.2541 1.2990 0.4401
v  0.2541 1.2548 0.4401
v  0.4401 1.4182 0.2541
v  0.4401 1.2989 0.2541
v  0.4401 1.2548 0.2541
v  0.4699 1.2989 0.0000
v  0.4069 1.2989 -0.2349
v  0.4069 1.2548 -0.2349
v  0.4699 1.2548 0.0000
v  0.2349 1.2989 -0.4069
v  0.2349 1.2548 -0.4069
v  -0.0000 1.2989 -0.4699
v  -0.0000 1.2548 -0.4699
v  -0.2349 1.2989 -0.4069
v  -0.2349 1.2548 -0.4069
v  -0.4069 1.2989 -0.2349
v  -0.4069 1.2548 -0.2349
v  -0.4699 1.2990 0.0000
v  -0.4699 1.2548 0.0000
v  -0.4069 1.2990 0.2349
v  -0.4069 1.2548 0.2349
v  -0.2349 1.2990 0.4069
v  -0.2349 1.2548 0.4069
v  -0.0000 1.2990 0.4699
v  -0.0000 1.2548 0.4699
v  0.2349 1.2990 0.4069
v  0.2349 1.2548 0.4069
v  0.4069 1.2990 0.2349
v  0.4069 1.2548 0.2349
v  0.4054 1.5155 -0.2340
v  0.4681 1.5155 0.0000
v  0.2340 1.5155 -0.4054
v  -0.0000 1.5155 -0.4681
v  -0.2340 1.5155 -0.4054
v  -0.4054 1.5155 -0.2340
v  -0.4681 1.5155 0.0000
v  -0.4054 1.5155 0.2340
v  -0.2340 1.5155 0.4054
v  -0.0000 1.5155 0.4681
v  0.2340 1.5155 0.4054
v  0.4054 1.5155 0.2340
v  0.3801 1.5420 -0.2195
v  0.4389 1.5420 0.0000
v  0.2195 1.5420 -0.3801
v  -0.0000 1.5420 -0.4389
v  -0.2195 1.5420 -0.3801
v  -0.3801 1.5420 -0.2195
v  -0.4389 1.5420 0.0000
v  -0.3801 1.5420 0.2195
v  -0.2195 1.5420 0.3801
v  -0.0000 1.5420 0.4389
v  0.2195 1.5420 0.3801
v  0.3801 1.5420 0.2195
# 144 vertices

vn 0.8511 -0.1848 -0.4914
vn 0.8660 0.0000 -0.5000
vn 1.0000 0.0000 0.0000
vn 0.9828 -0.1848 0.0000
vn 0.4914 -0.1848 -0.8511
vn 0.5000 0.0000 -0.8660
vn -0.0000 -0.1848 -0.9828
vn -0.0000 0.0000 -1.0000
vn -0.4914 -0.1848 -0.8511
vn -0.5000 0.0000 -0.8660
vn -0.8511 -0.1848 -0.4914
vn -0.8660 0.0000 -0.5000
vn -0.9828 -0.1848 0.0000
vn -1.0000 -0.0000 -0.0000
vn -0.8511 -0.1848 0.4914
vn -0.8660 -0.0000 0.5000
vn -0.4914 -0.1848 0.8511
vn -0.5000 -0.0000 0.8660
vn -0.0000 -0.1848 0.9828
vn -0.0000 -0.0000 1.0000
vn 0.4914 -0.1848 0.8511
vn 0.5000 -0.0000 0.8660
vn 0.8511 -0.1848 0.4914
vn 0.8660 -0.0000 0.5000
vn 0.0000 1.0000 -0.0000
vn -0.0000 1.0000 -0.0000
vn 0.1032 -0.9785 0.1787
vn 0.1787 -0.9785 0.1032
vn 0.6317 -0.6841 0.3647
vn 0.3647 -0.6841 0.6317
vn -0.0000 -0.9785 0.2064
vn -0.0000 -0.6841 0.7294
vn -0.1032 -0.9785 0.1787
vn -0.3647 -0.6841 0.6317
vn -0.1787 -0.9785 0.1032
vn -0.6317 -0.6841 0.3647
vn -0.2064 -0.9785 0.0000
vn -0.7294 -0.6841 0.0000
vn -0.1787 -0.9785 -0.1032
vn -0.6317 -0.6841 -0.3647
vn -0.1032 -0.9785 -0.1787
vn -0.3647 -0.6841 -0.6317
vn -0.0000 -0.9785 -0.2064
vn -0.0000 -0.6841 -0.7294
vn 0.1032 -0.9785 -0.1787
vn 0.3647 -0.6841 -0.6317
vn 0.1787 -0.9785 -0.1032
vn 0.6317 -0.6841 -0.3647
vn 0.2064 -0.9785 0.0000
vn 0.7294 -0.6841 0.0000
vn 0.8436 0.2263 -0.4870
vn 0.9741 0.2263 -0.0000
vn 0.7572 -0.6532 0.0000
vn 0.6557 -0.6532 -0.3786
vn 0.6557 0.6532 -0.3786
vn 0.7572 0.6532 -0.0000
vn 0.4870 0.2263 -0.8436
vn 0.3786 -0.6532 -0.6557
vn 0.3786 0.6532 -0.6557
vn 0.0000 0.2263 -0.9741
vn -0.0000 -0.6532 -0.7572
vn 0.0000 0.6532 -0.7572
vn -0.4870 0.2263 -0.8436
vn -0.3786 -0.6532 -0.6557
vn -0.3786 0.6532 -0.6557
vn -0.8436 0.2263 -0.4870
vn -0.6557 -0.6532 -0.3786
vn -0.6557 0.6532 -0.3786
vn -0.9741 0.2263 -0.0000
vn -0.7572 -0.6532 0.0000
vn -0.7572 0.6532 -0.0000
vn -0.8436 0.2263 0.4870
vn -0.6557 -0.6532 0.3786
vn -0.6557 0.6532 0.3786
vn -0.4870 0.2263 0.8436
vn -0.3786 -0.6532 0.6557
vn -0.3786 0.6532 0.6557
vn -0.0000 0.2263 0.9741
vn -0.0000 -0.6532 0.7572
vn 0.0000 0.6532 0.7572
vn 0.4870 0.2263 0.8436
vn 0.3786 -0.6532 0.6557
vn 0.3786 0.6532 0.6557
vn 0.8436 0.2263 0.4870
vn 0.6557 -0.6532 0.3786
vn 0.6557 0.6532 0.3786
vn 0.6377 -0.7703 0.0000
vn 0.5523 -0.7703 -0.3189
vn 0.5523 0.7703 -0.3189
vn 0.6377 0.7703 -0.0000
vn 0.3189 -0.7703 -0.5523
vn 0.3189 0.7703 -0.5523
vn -0.0000 -0.7703 -0.6377
vn 0.0000 0.7703 -0.6377
vn -0.3189 -0.7703 -0.5523
vn -0.3189 0.7703 -0.5523
vn -0.5523 -0.7703 -0.3189
vn -0.5523 0.7703 -0.3189
vn -0.6377 -0.7703 0.0000
vn -0.6377 0.7703 -0.0000
vn -0.5523 -0.7703 0.3189
vn -0.5523 0.7703 0.3189
vn -0.3189 -0.7703 0.5523
vn -0.3189 0.7703 0.5523
vn -0.0000 -0.7703 0.6377
vn 0.0000 0.7703 0.6377
vn 0.3189 -0.7703 0.5523
vn 0.3189 0.7703 0.5523
vn 0.5523 -0.7703 0.3189
vn 0.5523 0.7703 0.3189
vn 0.6715 0.6315 -0.3877
vn 0.7754 0.6315 -0.0000
vn 0.3877 0.6315 -0.6715
vn 0.0000 0.6315 -0.7754
vn -0.3877 0.6315 -0.6715
vn -0.6715 0.6315 -0.3877
vn -0.7754 0.6315 -0.0000
vn -0.6715 0.6315 0.3877
vn -0.3877 0.6315 0.6715
vn 0.0000 0.6315 0.7754
vn 0.3877 0.6315 0.6715
vn 0.6715 0.6315 0.3877
vn 0.5101 0.8081 -0.2945
vn 0.5890 0.8081 -0.0000
vn 0.2945 0.8081 -0.5101
vn 0.0000 0.8081 -0.5890
vn -0.2945 0.8081 -0.5101
vn -0.5101 0.8081 -0.2945
vn -0.5890 0.8081 -0.0000
vn -0.5101 0.8081 0.2945
vn -0.2945 0.8081 0.5101
vn 0.0000 0.8081 0.5890
vn 0.2945 0.8081 0.5101
vn 0.5101 0.8081 0.2945
# 134 vertex normals

vt 0.6563 0.2178 0.0533
vt 0.6563 0.6453 0.0533
vt 0.6058 0.6453 0.0533
vt 0.6058 0.2178 0.0533
vt 0.1014 0.2178 0.0533
vt 0.1014 0.6453 0.0533
vt 0.0509 0.6453 0.0533
vt 0.0509 0.2178 0.0533
vt 0.1518 0.2178 0.0533
vt 0.1518 0.6453 0.0533
vt 0.2023 0.2178 0.0533
vt 0.2023 0.6453 0.0533
vt 0.2527 0.2178 0.0533
vt 0.2527 0.6453 0.0533
vt 0.3032 0.2178 0.0533
vt 0.3032 0.6453 0.0533
vt 0.3536 0.2178 0.0533
vt 0.3536 0.6453 0.0533
vt 0.4041 0.2178 0.0533
vt 0.4041 0.6453 0.0533
vt 0.4545 0.2178 0.0533
vt 0.4545 0.6453 0.0533
vt 0.5049 0.2178 0.0533
vt 0.5049 0.6453 0.0533
vt 0.5554 0.2178 0.0533
vt 0.5554 0.6453 0.0533
vt 0.2973 0.8413 0.0000
vt 0.2777 0.9144 0.0000
vt 0.2243 0.9679 0.0000
vt 0.1512 0.9874 0.0000
vt 0.0782 0.9679 0.0000
vt 0.0247 0.9144 0.0000
vt 0.0051 0.8413 0.0000
vt 0.0247 0.7683 0.0000
vt 0.0782 0.7148 0.0000
vt 0.1512 0.6952 0.0000
vt 0.2243 0.7148 0.0000
vt 0.2777 0.7683 0.0000
vt 0.5049 0.1431 -0.0533
vt 0.5554 0.1431 -0.0533
vt 0.5554 0.1664 0.0266
vt 0.5049 0.1664 0.0266
vt 0.4545 0.1431 -0.0533
vt 0.4545 0.1664 0.0266
vt 0.4041 0.1431 -0.0533
vt 0.4041 0.1664 0.0266
vt 0.3536 0.1431 -0.0533
vt 0.3536 0.1664 0.0266
vt 0.3032 0.1431 -0.0533
vt 0.3032 0.1664 0.0266
vt 0.2527 0.1431 -0.0533
vt 0.2527 0.1664 0.0266
vt 0.2023 0.1431 -0.0533
vt 0.2023 0.1664 0.0266
vt 0.1518 0.1431 -0.0533
vt 0.1518 0.1664 0.0266
vt 0.1014 0.1431 -0.0533
vt 0.1014 0.1664 0.0266
vt 0.0509 0.1431 -0.0533
vt 0.0509 0.1664 0.0266
vt 0.6058 0.1431 -0.0533
vt 0.6563 0.1431 -0.0533
vt 0.6563 0.1664 0.0266
vt 0.6058 0.1664 0.0266
vt 0.0005 0.2178 0.0533
vt 0.0005 0.1664 0.0266
vt 0.8420 0.0689 0.0393
vt 0.7723 0.0689 0.0393
vt 0.7723 0.0005 0.0393
vt 0.8420 0.0005 0.0393
vt 0.6563 0.6636 0.0533
vt 0.6058 0.6636 0.0533
vt 0.0748 0.0689 0.0393
vt 0.0051 0.0689 0.0393
vt 0.0051 0.0005 0.0393
vt 0.0748 0.0005 0.0393
vt 0.1014 0.6636 0.0533
vt 0.0509 0.6636 0.0533
vt 0.1446 0.0689 0.0393
vt 0.1446 0.0005 0.0393
vt 0.1518 0.6636 0.0533
vt 0.2143 0.0689 0.0393
vt 0.2143 0.0005 0.0393
vt 0.2023 0.6636 0.0533
vt 0.2841 0.0689 0.0393
vt 0.2841 0.0005 0.0393
vt 0.2527 0.6636 0.0533
vt 0.3538 0.0689 0.0393
vt 0.3538 0.0005 0.0393
vt 0.3032 0.6636 0.0533
vt 0.4236 0.0689 0.0393
vt 0.4236 0.0005 0.0393
vt 0.3536 0.6636 0.0533
vt 0.4933 0.0689 0.0393
vt 0.4933 0.0005 0.0393
vt 0.4041 0.6636 0.0533
vt 0.5630 0.0689 0.0393
vt 0.5630 0.0005 0.0393
vt 0.4545 0.6636 0.0533
vt 0.6328 0.0689 0.0393
vt 0.6328 0.0005 0.0393
vt 0.5049 0.6636 0.0533
vt 0.7025 0.0689 0.0393
vt 0.7025 0.0005 0.0393
vt 0.5554 0.6636 0.0533
vt 0.8636 0.9105 0.0000
vt 0.7726 0.9121 0.0000
vt 0.7758 0.8992 0.0000
vt 0.8600 0.8978 0.0000
vt 0.9979 0.3713 0.0000
vt 0.9511 0.4493 0.0000
vt 0.9419 0.4398 0.0000
vt 0.9852 0.3677 0.0000
vt 0.9416 0.8636 0.0000
vt 0.9321 0.8544 0.0000
vt 0.8715 0.4934 0.0000
vt 0.8683 0.4806 0.0000
vt 0.9857 0.7841 0.0000
vt 0.9729 0.7809 0.0000
vt 0.7805 0.4918 0.0000
vt 0.7842 0.4791 0.0000
vt 0.9841 0.6931 0.0000
vt 0.9714 0.6967 0.0000
vt 0.7025 0.4450 0.0000
vt 0.7120 0.4358 0.0000
vt 0.9372 0.6151 0.0000
vt 0.9281 0.6246 0.0000
vt 0.6584 0.3654 0.0000
vt 0.6713 0.3622 0.0000
vt 0.8577 0.5710 0.0000
vt 0.8545 0.5838 0.0000
vt 0.6600 0.2744 0.0000
vt 0.6727 0.2781 0.0000
vt 0.7667 0.5726 0.0000
vt 0.7704 0.5853 0.0000
vt 0.7069 0.1964 0.0000
vt 0.7161 0.2060 0.0000
vt 0.6887 0.6194 0.0000
vt 0.6982 0.6286 0.0000
vt 0.7864 0.1523 0.0000
vt 0.7896 0.1652 0.0000
vt 0.6446 0.6990 0.0000
vt 0.6574 0.7022 0.0000
vt 0.8774 0.1539 0.0000
vt 0.8738 0.1666 0.0000
vt 0.6462 0.7900 0.0000
vt 0.6589 0.7863 0.0000
vt 0.9554 0.2008 0.0000
vt 0.9459 0.2100 0.0000
vt 0.6931 0.8680 0.0000
vt 0.7022 0.8585 0.0000
vt 0.9995 0.2803 0.0000
vt 0.9867 0.2836 0.0000
vt 0.3180 0.8998 0.0000
vt 0.3180 0.8090 0.0000
vt 0.3316 0.8090 0.0000
vt 0.3316 0.8998 0.0000
vt 0.3180 0.7182 0.0000
vt 0.3316 0.7182 0.0000
vt 0.2996 0.9663 0.0000
vt 0.2995 0.8998 0.0000
vt 0.3132 0.8998 0.0000
vt 0.3132 0.9663 0.0000
vt 0.2995 0.8090 0.0000
vt 0.3132 0.8090 0.0000
vt 0.2995 0.7182 0.0000
vt 0.3132 0.7182 0.0000
vt 0.0148 0.2213 0.0000
vt 0.0148 0.2907 0.0000
vt 0.0005 0.2907 0.0000
vt 0.0005 0.2213 0.0000
vt 0.0148 0.3855 0.0000
vt 0.0005 0.3855 0.0000
vt 0.0148 0.4803 0.0000
vt 0.0005 0.4803 0.0000
vt 0.0148 0.5497 0.0000
vt 0.0005 0.5497 0.0000
vt 0.8259 0.5192 0.0000
vt 0.7422 0.5192 0.0000
vt 0.7422 0.5066 0.0000
vt 0.8259 0.5066 0.0000
vt 0.6584 0.5192 0.0000
vt 0.6584 0.5066 0.0000
vt 0.3180 0.9663 0.0000
vt 0.3316 0.9663 0.0000
vt 0.8420 0.1247 0.0026
vt 0.7723 0.1247 0.0026
vt 0.0748 0.1247 0.0026
vt 0.0051 0.1247 0.0026
vt 0.1446 0.1247 0.0026
vt 0.2143 0.1247 0.0026
vt 0.2841 0.1247 0.0026
vt 0.3538 0.1247 0.0026
vt 0.4236 0.1247 0.0026
vt 0.4933 0.1247 0.0026
vt 0.5630 0.1247 0.0026
vt 0.6328 0.1247 0.0026
vt 0.7025 0.1247 0.0026
vt 0.4239 0.9884 0.0000
vt 0.3695 0.9582 0.0000
vt 0.3374 0.9048 0.0000
vt 0.3364 0.8426 0.0000
vt 0.3665 0.7882 0.0000
vt 0.4199 0.7561 0.0000
vt 0.4821 0.7550 0.0000
vt 0.5366 0.7852 0.0000
vt 0.5686 0.8386 0.0000
vt 0.5697 0.9008 0.0000
vt 0.5395 0.9552 0.0000
vt 0.4862 0.9873 0.0000
vt 0.8420 0.1399 -0.0242
vt 0.7723 0.1399 -0.0242
vt 0.0748 0.1399 -0.0242
vt 0.0051 0.1399 -0.0242
vt 0.1446 0.1399 -0.0242
vt 0.2143 0.1399 -0.0242
vt 0.2841 0.1399 -0.0242
vt 0.3538 0.1399 -0.0242
vt 0.4236 0.1399 -0.0242
vt 0.4933 0.1399 -0.0242
vt 0.5630 0.1399 -0.0242
vt 0.6328 0.1399 -0.0242
vt 0.7025 0.1399 -0.0242
vt 0.8420 0.1399 -0.0393
vt 0.7723 0.1399 -0.0393
vt 0.0748 0.1399 -0.0393
vt 0.0051 0.1399 -0.0393
vt 0.1446 0.1399 -0.0393
vt 0.2143 0.1399 -0.0393
vt 0.2841 0.1399 -0.0393
vt 0.3538 0.1399 -0.0393
vt 0.4236 0.1399 -0.0393
vt 0.4933 0.1399 -0.0393
vt 0.5630 0.1399 -0.0393
vt 0.6328 0.1399 -0.0393
vt 0.7025 0.1399 -0.0393
# 236 texture coords

o PieceTrash
g PieceTrash
usemtl wire_225198087
s 1
f 1/1/1 2/2/2 3/3/3 
f 3/3/3 4/4/4 1/1/1 
f 5/5/5 6/6/6 2/7/2 
f 2/7/2 1/8/1 5/5/5 
f 7/9/7 8/10/8 6/6/6 
f 6/6/6 5/5/5 7/9/7 
f 9/11/9 10/12/10 8/10/8 
f 8/10/8 7/9/7 9/11/9 
f 11/13/11 12/14/12 10/12/10 
f 10/12/10 9/11/9 11/13/11 
f 13/15/13 14/16/14 12/14/12 
f 12/14/12 11/13/11 13/15/13 
f 15/17/15 16/18/16 14/16/14 
f 14/16/14 13/15/13 15/17/15 
f 17/19/17 18/20/18 16/18/16 
f 16/18/16 15/17/15 17/19/17 
f 19/21/19 20/22/20 18/20/18 
f 18/20/18 17/19/17 19/21/19 
f 21/23/21 22/24/22 20/22/20 
f 20/22/20 19/21/19 21/23/21 
f 23/25/23 24/26/24 22/24/22 
f 22/24/22 21/23/21 23/25/23 
f 4/4/4 3/3/3 24/26/24 
f 24/26/24 23/25/23 4/4/4 
f 25/27/25 26/28/25 27/29/25 
f 27/29/25 28/30/25 29/31/25 
f 29/31/25 30/32/25 31/33/25 
f 27/29/25 29/31/25 31/33/25 
f 31/33/25 32/34/26 33/35/25 
f 33/35/25 34/36/25 35/37/25 
f 31/33/25 33/35/25 35/37/25 
f 27/29/25 31/33/25 35/37/25 
f 25/27/25 27/29/25 35/37/25 
f 36/38/25 25/27/25 35/37/25 
f 37/39/27 38/40/28 39/41/29 
f 39/41/29 40/42/30 37/39/27 
f 41/43/31 37/39/27 40/42/30 
f 40/42/30 42/44/32 41/43/31 
f 43/45/33 41/43/31 42/44/32 
f 42/44/32 44/46/34 43/45/33 
f 45/47/35 43/45/33 44/46/34 
f 44/46/34 46/48/36 45/47/35 
f 47/49/37 45/47/35 46/48/36 
f 46/48/36 48/50/38 47/49/37 
f 49/51/39 47/49/37 48/50/38 
f 48/50/38 50/52/40 49/51/39 
f 51/53/41 49/51/39 50/52/40 
f 50/52/40 52/54/42 51/53/41 
f 53/55/43 51/53/41 52/54/42 
f 52/54/42 54/56/44 53/55/43 
f 55/57/45 53/55/43 54/56/44 
f 54/56/44 56/58/46 55/57/45 
f 57/59/47 55/57/45 56/58/46 
f 56/58/46 58/60/48 57/59/47 
f 59/61/49 57/62/47 58/63/48 
f 58/63/48 60/64/50 59/61/49 
f 38/40/28 59/61/49 60/64/50 
f 60/64/50 39/41/29 38/40/28 
f 1/8/1 4/65/4 60/66/50 
f 60/66/50 58/60/48 1/8/1 
f 5/5/5 1/8/1 58/60/48 
f 58/60/48 56/58/46 5/5/5 
f 7/9/7 5/5/5 56/58/46 
f 56/58/46 54/56/44 7/9/7 
f 9/11/9 7/9/7 54/56/44 
f 54/56/44 52/54/42 9/11/9 
f 11/13/11 9/11/9 52/54/42 
f 52/54/42 50/52/40 11/13/11 
f 13/15/13 11/13/11 50/52/40 
f 50/52/40 48/50/38 13/15/13 
f 15/17/15 13/15/13 48/50/38 
f 48/50/38 46/48/36 15/17/15 
f 17/19/17 15/17/15 46/48/36 
f 46/48/36 44/46/34 17/19/17 
f 19/21/19 17/19/17 44/46/34 
f 44/46/34 42/44/32 19/21/19 
f 21/23/21 19/21/19 42/44/32 
f 42/44/32 40/42/30 21/23/21 
f 23/25/23 21/23/21 40/42/30 
f 40/42/30 39/41/29 23/25/23 
f 4/4/4 23/25/23 39/41/29 
f 39/41/29 60/64/50 4/4/4 
f 61/67/51 62/68/52 63/69/53 
f 63/69/53 64/70/54 61/67/51 
f 3/3/3 2/2/2 65/71/55 
f 65/71/55 66/72/56 3/3/3 
f 67/73/57 61/74/51 64/75/54 
f 64/75/54 68/76/58 67/73/57 
f 2/7/2 6/6/6 69/77/59 
f 69/77/59 65/78/55 2/7/2 
f 70/79/60 67/73/57 68/76/58 
f 68/76/58 71/80/61 70/79/60 
f 6/6/6 8/10/8 72/81/62 
f 72/81/62 69/77/59 6/6/6 
f 73/82/63 70/79/60 71/80/61 
f 71/80/61 74/83/64 73/82/63 
f 8/10/8 10/12/10 75/84/65 
f 75/84/65 72/81/62 8/10/8 
f 76/85/66 73/82/63 74/83/64 
f 74/83/64 77/86/67 76/85/66 
f 10/12/10 12/14/12 78/87/68 
f 78/87/68 75/84/65 10/12/10 
f 79/88/69 76/85/66 77/86/67 
f 77/86/67 80/89/70 79/88/69 
f 12/14/12 14/16/14 81/90/71 
f 81/90/71 78/87/68 12/14/12 
f 82/91/72 79/88/69 80/89/70 
f 80/89/70 83/92/73 82/91/72 
f 14/16/14 16/18/16 84/93/74 
f 84/93/74 81/90/71 14/16/14 
f 85/94/75 82/91/72 83/92/73 
f 83/92/73 86/95/76 85/94/75 
f 16/18/16 18/20/18 87/96/77 
f 87/96/77 84/93/74 16/18/16 
f 88/97/78 85/94/75 86/95/76 
f 86/95/76 89/98/79 88/97/78 
f 18/20/18 20/22/20 90/99/80 
f 90/99/80 87/96/77 18/20/18 
f 91/100/81 88/97/78 89/98/79 
f 89/98/79 92/101/82 91/100/81 
f 20/22/20 22/24/22 93/102/83 
f 93/102/83 90/99/80 20/22/20 
f 94/103/84 91/100/81 92/101/82 
f 92/101/82 95/104/85 94/103/84 
f 22/24/22 24/26/24 96/105/86 
f 96/105/86 93/102/83 22/24/22 
f 62/68/52 94/103/84 95/104/85 
f 95/104/85 63/69/53 62/68/52 
f 24/26/24 3/3/3 66/72/56 
f 66/72/56 96/105/86 24/26/24 
f 64/106/54 63/107/53 97/108/87 
f 97/108/87 98/109/88 64/106/54 
f 66/110/56 65/111/55 99/112/89 
f 99/112/89 100/113/90 66/110/56 
f 68/114/58 64/106/54 98/109/88 
f 98/109/88 101/115/91 68/114/58 
f 65/111/55 69/116/59 102/117/92 
f 102/117/92 99/112/89 65/111/55 
f 71/118/61 68/114/58 101/115/91 
f 101/115/91 103/119/93 71/118/61 
f 69/116/59 72/120/62 104/121/94 
f 104/121/94 102/117/92 69/116/59 
f 74/122/64 71/118/61 103/119/93 
f 103/119/93 105/123/95 74/122/64 
f 72/120/62 75/124/65 106/125/96 
f 106/125/96 104/121/94 72/120/62 
f 77/126/67 74/122/64 105/123/95 
f 105/123/95 107/127/97 77/126/67 
f 75/124/65 78/128/68 108/129/98 
f 108/129/98 106/125/96 75/124/65 
f 80/130/70 77/126/67 107/127/97 
f 107/127/97 109/131/99 80/130/70 
f 78/128/68 81/132/71 110/133/100 
f 110/133/100 108/129/98 78/128/68 
f 83/134/73 80/130/70 109/131/99 
f 109/131/99 111/135/101 83/134/73 
f 81/132/71 84/136/74 112/137/102 
f 112/137/102 110/133/100 81/132/71 
f 86/138/76 83/134/73 111/135/101 
f 111/135/101 113/139/103 86/138/76 
f 84/136/74 87/140/77 114/141/104 
f 114/141/104 112/137/102 84/136/74 
f 89/142/79 86/138/76 113/139/103 
f 113/139/103 115/143/105 89/142/79 
f 87/140/77 90/144/80 116/145/106 
f 116/145/106 114/141/104 87/140/77 
f 92/146/82 89/142/79 115/143/105 
f 115/143/105 117/147/107 92/146/82 
f 90/144/80 93/148/83 118/149/108 
f 118/149/108 116/145/106 90/144/80 
f 95/150/85 92/146/82 117/147/107 
f 117/147/107 119/151/109 95/150/85 
f 93/148/83 96/152/86 120/153/110 
f 120/153/110 118/149/108 93/148/83 
f 63/107/53 95/150/85 119/151/109 
f 119/151/109 97/108/87 63/107/53 
f 96/152/86 66/110/56 100/113/90 
f 100/113/90 120/153/110 96/152/86 
f 98/154/88 97/155/87 100/156/90 
f 100/156/90 99/157/89 98/154/88 
f 97/155/87 119/158/109 120/159/110 
f 120/159/110 100/156/90 97/155/87 
f 119/160/109 117/161/107 118/162/108 
f 118/162/108 120/163/110 119/160/109 
f 117/161/107 115/164/105 116/165/106 
f 116/165/106 118/162/108 117/161/107 
f 115/164/105 113/166/103 114/167/104 
f 114/167/104 116/165/106 115/164/105 
f 113/168/103 111/169/101 112/170/102 
f 112/170/102 114/171/104 113/168/103 
f 111/169/101 109/172/99 110/173/100 
f 110/173/100 112/170/102 111/169/101 
f 109/172/99 107/174/97 108/175/98 
f 108/175/98 110/173/100 109/172/99 
f 107/174/97 105/176/95 106/177/96 
f 106/177/96 108/175/98 107/174/97 
f 105/178/95 103/179/93 104/180/94 
f 104/180/94 106/181/96 105/178/95 
f 103/179/93 101/182/91 102/183/92 
f 102/183/92 104/180/94 103/179/93 
f 101/184/91 98/154/88 99/157/89 
f 99/157/89 102/185/92 101/184/91 
f 62/68/52 61/67/51 121/186/111 
f 121/186/111 122/187/112 62/68/52 
f 61/74/51 67/73/57 123/188/113 
f 123/188/113 121/189/111 61/74/51 
f 67/73/57 70/79/60 124/190/114 
f 124/190/114 123/188/113 67/73/57 
f 70/79/60 73/82/63 125/191/115 
f 125/191/115 124/190/114 70/79/60 
f 73/82/63 76/85/66 126/192/116 
f 126/192/116 125/191/115 73/82/63 
f 76/85/66 79/88/69 127/193/117 
f 127/193/117 126/192/116 76/85/66 
f 79/88/69 82/91/72 128/194/118 
f 128/194/118 127/193/117 79/88/69 
f 82/91/72 85/94/75 129/195/119 
f 129/195/119 128/194/118 82/91/72 
f 85/94/75 88/97/78 130/196/120 
f 130/196/120 129/195/119 85/94/75 
f 88/97/78 91/100/81 131/197/121 
f 131/197/121 130/196/120 88/97/78 
f 91/100/81 94/103/84 132/198/122 
f 132/198/122 131/197/121 91/100/81 
f 94/103/84 62/68/52 122/187/112 
f 122/187/112 132/198/122 94/103/84 
f 41/199/31 43/200/33 45/201/35 
f 45/201/35 47/202/37 49/203/39 
f 49/203/39 51/204/41 53/205/43 
f 45/201/35 49/203/39 53/205/43 
f 53/205/43 55/206/45 57/207/47 
f 57/207/47 59/208/49 38/209/28 
f 53/205/43 57/207/47 38/209/28 
f 45/201/35 53/205/43 38/209/28 
f 41/199/31 45/201/35 38/209/28 
f 37/210/27 41/199/31 38/209/28 
f 122/187/112 121/186/111 133/211/123 
f 133/211/123 134/212/124 122/187/112 
f 121/189/111 123/188/113 135/213/125 
f 135/213/125 133/214/123 121/189/111 
f 123/188/113 124/190/114 136/215/126 
f 136/215/126 135/213/125 123/188/113 
f 124/190/114 125/191/115 137/216/127 
f 137/216/127 136/215/126 124/190/114 
f 125/191/115 126/192/116 138/217/128 
f 138/217/128 137/216/127 125/191/115 
f 126/192/116 127/193/117 139/218/129 
f 139/218/129 138/217/128 126/192/116 
f 127/193/117 128/194/118 140/219/130 
f 140/219/130 139/218/129 127/193/117 
f 128/194/118 129/195/119 141/220/131 
f 141/220/131 140/219/130 128/194/118 
f 129/195/119 130/196/120 142/221/132 
f 142/221/132 141/220/131 129/195/119 
f 130/196/120 131/197/121 143/222/133 
f 143/222/133 142/221/132 130/196/120 
f 131/197/121 132/198/122 144/223/134 
f 144/223/134 143/222/133 131/197/121 
f 132/198/122 122/187/112 134/212/124 
f 134/212/124 144/223/134 132/198/122 
s off
f 134/212/25 133/211/25 26/224/25 
f 26/224/26 25/225/26 134/212/26 
f 133/214/25 135/213/25 27/226/25 
f 27/226/25 26/227/25 133/214/25 
f 135/213/25 136/215/25 28/228/25 
f 28/228/25 27/226/25 135/213/25 
f 136/215/25 137/216/25 29/229/25 
f 29/229/25 28/228/25 136/215/25 
f 137/216/25 138/217/25 30/230/25 
f 30/230/25 29/229/25 137/216/25 
f 138/217/25 139/218/25 31/231/25 
f 31/231/25 30/230/25 138/217/25 
f 139/218/25 140/219/25 32/232/25 
f 32/232/25 31/231/25 139/218/25 
f 140/219/25 141/220/25 33/233/25 
f 33/233/25 32/232/25 140/219/25 
f 141/220/25 142/221/25 34/234/25 
f 34/234/25 33/233/25 141/220/25 
f 142/221/25 143/222/25 35/235/25 
f 35/235/25 34/234/25 142/221/25 
f 143/222/25 144/223/25 36/236/25 
f 36/236/25 35/235/25 143/222/25 
f 144/223/26 134/212/26 25/225/26 
f 25/225/25 36/236/25 144/223/25 
# 284 faces

